<?xml version="1.0" standalone="no"?>
<!DOCTYPE svg PUBLIC "-//W3C//DTD SVG 20010904//EN"
 "http://www.w3.org/TR/2001/REC-SVG-20010904/DTD/svg10.dtd">
<svg version="1.0" xmlns="http://www.w3.org/2000/svg"
 width="1477.000000pt" height="1470.000000pt" viewBox="0 0 1477.000000 1470.000000"
 preserveAspectRatio="xMidYMid meet">

<g transform="translate(0.000000,1470.000000) scale(0.100000,-0.100000)"
fill="#000000" stroke="none">
<path d="M660 7330 l0 -6750 6750 0 6750 0 0 6750 0 6750 -6750 0 -6750 0 0
-6750z m7075 3159 c205 -17 357 -50 605 -131 281 -92 534 -215 790 -383 476
-314 813 -692 1128 -1267 24 -42 50 -86 60 -98 l18 -22 119 27 c207 46 276 52
422 32 359 -50 1312 -330 1456 -430 57 -39 73 -115 37 -174 -41 -68 -154 -127
-390 -204 -135 -44 -577 -154 -717 -179 -65 -11 -149 -27 -188 -36 -73 -16
-420 -63 -655 -89 -358 -39 -527 -56 -655 -65 -77 -6 -155 -12 -172 -15 -18
-2 -33 0 -33 6 0 5 10 9 23 9 12 0 78 9 147 21 69 11 195 31 280 44 194 29
397 67 810 149 590 118 798 169 1085 264 202 68 301 110 329 141 18 20 18 21
-10 32 -124 49 -182 69 -347 124 l-188 63 -46 -24 c-77 -42 -273 -102 -368
-113 -191 -23 -392 -8 -480 37 -50 24 -125 83 -125 96 0 13 82 40 300 96 69
18 131 36 138 40 7 3 -42 20 -110 36 -109 26 -139 29 -273 28 -97 -1 -176 -7
-225 -18 -41 -8 -118 -25 -170 -36 -123 -26 -770 -174 -1030 -235 -117 -28
-469 -110 -660 -155 -131 -30 -405 -95 -575 -135 -55 -13 -167 -40 -250 -60
-82 -20 -215 -51 -295 -70 -80 -19 -212 -50 -295 -70 -155 -37 -331 -77 -540
-124 -132 -30 -142 -39 -105 -90 39 -56 88 -167 100 -229 50 -250 -79 -452
-260 -411 -24 6 -59 19 -76 30 -49 30 -113 105 -140 164 -34 74 -50 213 -35
308 19 118 19 112 -9 109 -80 -10 -745 -184 -840 -220 -80 -30 -174 -83 -214
-120 -54 -52 -76 -103 -76 -184 0 -37 -4 -69 -8 -72 -12 -7 -85 87 -99 126
-36 102 71 237 261 327 109 53 262 105 339 116 l48 7 -21 23 c-59 63 -1252
878 -1500 1025 -64 39 -72 41 -88 27 -28 -25 -697 -167 -1307 -278 -60 -11
-155 -28 -210 -39 -130 -25 -257 -46 -373 -60 -81 -10 -96 -10 -117 4 -31 20
-32 51 -2 70 39 25 1119 370 1547 494 226 66 341 68 456 10 64 -33 98 -54 307
-183 42 -26 79 -46 80 -44 23 29 57 87 117 199 198 369 327 545 600 824 190
194 318 301 515 431 258 170 526 302 790 388 276 91 461 131 680 147 138 10
514 4 690 -11z m-4305 -2246 c58 -63 459 -559 592 -733 178 -232 240 -314 282
-375 l46 -67 1 -112 c1 -131 6 -153 39 -177 36 -25 317 -73 635 -108 397 -44
522 -51 1435 -81 173 -5 353 -13 399 -16 l84 -6 -29 -28 c-16 -16 -112 -86
-214 -157 -102 -71 -214 -149 -250 -174 -36 -25 -225 -155 -420 -289 -422
-289 -479 -329 -630 -433 -63 -44 -150 -104 -194 -134 -43 -30 -110 -77 -149
-105 -39 -28 -77 -51 -83 -52 -15 -1 -160 181 -236 296 -138 209 -270 468
-368 718 -29 74 -58 138 -64 142 -6 4 -330 8 -721 8 -390 1 -763 5 -828 9
-142 10 -155 17 -141 83 l9 43 823 3 c587 1 822 5 822 13 0 6 -9 66 -20 133
-12 66 -26 180 -33 251 l-12 130 -975 5 c-536 3 -982 9 -992 13 -21 11 -30 49
-19 80 7 18 20 26 48 30 21 4 340 7 709 7 778 0 1124 8 1124 25 0 15 -135 193
-349 459 -276 343 -420 527 -457 580 -35 53 -33 71 9 79 57 11 65 7 127 -60z
m6039 -298 c52 -27 81 -71 81 -125 0 -62 -12 -88 -57 -122 -28 -22 -47 -28
-83 -28 -79 0 -130 59 -130 150 0 105 100 171 189 125z m-502 -126 c94 -58 97
-160 8 -238 -52 -45 -101 -43 -155 5 -70 63 -78 152 -19 219 44 50 99 55 166
14z m-508 -106 c65 -49 84 -130 48 -200 -35 -66 -121 -92 -183 -54 -37 23 -74
93 -74 142 0 109 124 175 209 112z m-532 -99 c19 -10 48 -30 64 -46 25 -25 29
-37 29 -81 0 -102 -60 -162 -153 -154 -40 3 -56 11 -85 40 -30 30 -36 44 -40
90 -3 45 0 63 19 97 38 68 96 87 166 54z m-490 -130 c71 -54 94 -140 56 -206
-21 -35 -80 -68 -120 -68 -72 0 -133 73 -133 158 0 65 10 84 58 117 48 33 95
33 139 -1z m3137 -174 c7 -40 -11 -316 -30 -450 -65 -451 -265 -951 -539
-1350 -377 -549 -934 -969 -1585 -1195 -426 -148 -824 -204 -1261 -176 -278
17 -564 72 -817 157 -94 32 -382 156 -437 189 -11 7 -67 38 -125 70 -136 76
-276 167 -369 238 -40 31 -74 57 -76 57 -5 0 -389 -171 -560 -250 -363 -166
-583 -260 -681 -289 -128 -38 -159 -31 -354 80 -157 89 -484 295 -500 314 -17
20 -12 24 51 41 102 27 115 23 549 -129 118 -41 249 -85 290 -97 103 -31 113
-28 485 140 83 37 188 85 235 105 47 21 110 49 140 62 30 14 116 52 190 85
194 86 308 137 365 163 28 13 122 55 210 95 247 112 739 337 845 387 52 25
129 60 170 78 73 32 519 237 690 317 47 22 130 60 185 85 188 85 840 385 1010
465 94 45 186 87 205 95 51 22 164 75 335 159 151 74 239 134 444 304 52 43
106 78 140 91 60 22 343 97 556 147 221 52 230 53 239 12z m-6826 -1496 c14
-9 22 -26 22 -44 l0 -28 -102 -7 c-57 -3 -197 -5 -313 -3 l-210 3 -3 33 c-6
65 -20 62 295 62 245 0 292 -2 311 -16z"/>
<path d="M3540 8594 c-74 -19 -155 -41 -180 -49 -25 -8 -81 -24 -125 -35 -119
-31 -277 -81 -273 -86 3 -2 58 8 124 21 65 14 205 41 309 60 105 19 240 44
300 55 61 12 125 24 143 27 43 8 36 26 -14 35 -78 14 -151 7 -284 -28z"/>
<path d="M6080 8593 c-36 -8 -68 -18 -72 -22 -4 -3 174 -188 395 -409 l403
-403 169 41 c94 23 235 57 315 76 80 20 207 49 284 64 76 16 140 31 142 33 3
2 -19 14 -48 27 -112 47 -415 172 -451 185 -20 8 -52 21 -70 29 -17 8 -54 24
-82 34 -27 11 -214 86 -415 167 -304 123 -501 198 -504 194 -1 0 -30 -8 -66
-16z"/>
<path d="M6000 7739 c-195 -50 -365 -93 -377 -96 -13 -3 -23 -13 -23 -22 1
-15 81 -84 113 -97 8 -3 100 15 203 40 317 75 341 79 405 66 50 -11 60 -10 96
8 21 11 77 33 123 48 l84 27 -30 23 c-37 30 -185 94 -216 93 -13 0 -183 -41
-378 -90z"/>
<path d="M6361 7447 c-46 -23 -66 -73 -65 -160 1 -70 6 -87 40 -155 60 -119
126 -149 181 -83 48 57 55 193 15 283 -10 24 -37 63 -59 86 -42 44 -69 51
-112 29z"/>
</g>
</svg>
