<?xml version="1.0" standalone="no"?>
<!DOCTYPE svg PUBLIC "-//W3C//DTD SVG 20010904//EN"
 "http://www.w3.org/TR/2001/REC-SVG-20010904/DTD/svg10.dtd">
<svg version="1.0" xmlns="http://www.w3.org/2000/svg"
 width="1024.000000pt" height="1024.000000pt" viewBox="0 0 1024.000000 1024.000000"
 preserveAspectRatio="xMidYMid meet">

<g transform="translate(0.000000,1024.000000) scale(0.100000,-0.100000)"
fill="#000000" stroke="none">
<path d="M0 5120 l0 -5120 5120 0 5120 0 0 5120 0 5120 -5120 0 -5120 0 0
-5120z m5420 1885 c469 -84 919 -358 1202 -731 68 -90 173 -259 224 -359 11
-22 26 -39 34 -38 8 1 63 12 121 25 99 21 114 21 195 10 232 -33 828 -210 884
-262 58 -55 34 -118 -65 -168 -117 -59 -461 -148 -750 -196 -167 -27 -641 -79
-825 -90 -98 -6 -101 -6 203 40 182 27 579 104 832 160 280 63 553 157 549
189 -1 6 -77 35 -169 66 l-167 55 -47 -23 c-88 -42 -199 -66 -306 -67 -114 -1
-180 17 -236 63 -40 34 -51 28 126 74 l130 34 -75 18 c-153 36 -208 33 -485
-30 -244 -55 -726 -167 -1055 -245 -665 -158 -852 -203 -975 -230 -77 -17
-146 -33 -153 -35 -9 -3 -4 -18 19 -51 107 -156 61 -374 -79 -374 -59 0 -120
46 -157 120 -23 45 -31 165 -15 214 6 21 10 39 8 41 -6 5 -461 -112 -518 -134
-134 -52 -180 -98 -180 -185 l-1 -51 -34 39 c-52 58 -43 106 31 180 48 47 190
109 302 131 l32 7 -67 52 c-72 56 -226 162 -588 405 -234 157 -323 212 -312
193 9 -14 -8 -18 -263 -71 -430 -90 -891 -173 -928 -169 -30 3 -43 35 -20 49
16 11 341 116 738 239 325 101 370 109 451 73 25 -11 89 -48 142 -81 52 -34
100 -63 105 -64 5 -2 36 49 69 113 55 107 154 268 185 300 7 8 26 32 43 54 47
64 214 232 295 298 275 222 617 373 960 423 128 18 461 12 590 -11z m-2636
-1397 c170 -206 446 -561 490 -630 14 -21 16 -39 12 -75 -3 -27 -2 -64 2 -83
7 -32 11 -35 67 -46 266 -54 577 -82 1070 -95 226 -7 412 -13 414 -15 2 -2 -9
-14 -24 -26 -33 -27 -426 -299 -705 -489 -107 -73 -253 -174 -324 -224 l-130
-91 -45 55 c-120 148 -221 324 -301 524 l-48 122 -507 3 c-550 2 -525 0 -511
57 l6 25 495 0 495 0 -5 23 c-11 52 -25 147 -31 220 l-7 77 -593 0 c-584 0
-593 0 -599 20 -3 11 -3 29 0 40 6 20 15 20 571 20 310 0 564 3 564 8 -1 10
-95 133 -281 363 -189 236 -229 288 -229 299 0 5 12 11 28 13 15 2 30 5 34 6
4 0 46 -45 92 -101z m3593 -132 c22 -19 28 -32 28 -66 0 -34 -6 -47 -28 -66
-58 -50 -137 -11 -137 68 0 78 78 114 137 64z m-306 -75 c20 -20 29 -39 29
-61 0 -40 -47 -90 -85 -90 -40 0 -85 50 -85 95 0 79 84 112 141 56z m-303 -67
c44 -50 21 -128 -44 -148 -32 -10 -71 12 -89 51 -46 96 63 176 133 97z m-306
-64 c27 -27 30 -36 25 -73 -7 -51 -36 -77 -87 -77 -78 0 -111 99 -53 162 26
29 79 23 115 -12z m-311 -69 c59 -59 29 -151 -50 -151 -51 0 -83 34 -85 90 -1
34 4 46 27 66 38 32 72 30 108 -5z m1866 -203 c-20 -446 -246 -936 -577 -1252
-524 -498 -1273 -672 -1947 -451 -175 58 -441 198 -570 302 -23 18 -45 33 -50
33 -4 0 -161 -69 -348 -154 -378 -172 -437 -193 -494 -178 -38 9 -421 241
-421 254 0 12 82 30 114 25 17 -2 121 -37 231 -77 110 -40 216 -74 235 -77 28
-4 67 10 200 70 91 41 269 121 395 177 311 139 566 255 1245 568 316 145 681
313 810 372 364 167 389 179 449 217 31 20 89 65 130 100 41 36 93 74 115 84
35 17 436 117 475 118 11 1 13 -22 8 -131z m-4083 -800 c3 -13 6 -26 6 -30 0
-5 -85 -8 -190 -8 l-190 0 0 30 0 30 184 0 c182 0 184 0 190 -22z"/>
<path d="M2855 5893 c-73 -17 -393 -107 -405 -114 -17 -10 -8 -9 103 16 38 8
135 27 215 41 222 39 251 45 227 55 -21 8 -107 10 -140 2z"/>
<path d="M4317 5877 l-47 -12 244 -244 244 -244 88 22 c49 12 163 39 253 61
91 22 176 40 190 40 15 0 21 4 16 9 -8 7 -892 365 -930 376 -5 2 -31 -2 -58
-8z"/>
<path d="M4465 5413 c-168 -40 -420 -105 -431 -111 -11 -6 -4 -15 29 -39 l43
-31 164 39 c139 34 168 38 197 28 28 -9 38 -8 66 9 17 11 49 23 70 27 20 4 39
11 42 15 7 11 -113 70 -139 69 -12 -1 -30 -3 -41 -6z"/>
<path d="M4471 5174 c-53 -67 4 -244 78 -244 57 0 82 120 41 200 -36 71 -84
88 -119 44z"/>
</g>
</svg>
